Genre:Biography | Drama 
Language:English
IMDb:http://www.imdb.com/title/tt1390543/
Subtitles:English
Source:DVD
.............................................
General
Complete name : The Wronged Man (2010) DVDRip MKV FEEL-FREE
Format : Matroska
File size : 1.16 GiB
Duration : 1h 25mn
Overall bit rate : 1 947 Kbps
..............................................
Video
ID : 1
Format : MPEG-4 Visual
Format profile : AdvancedSimple@L5
Format settings, BVOP : Yes
Format settings, QPel : No
Format settings, GMC : No warppoints
Format settings, Matrix : Default (H.263)
Codec ID : XVID
Codec ID/Hint : XviD
Duration : 1h 25mn
Bit rate : 1 525 Kbps
Width : 720 pixels
Height : 400 pixels
Display aspect ratio : 16:9
Frame rate : 25.000 fps
Resolution : 24 bits
Colorimetry : 4:2:0
Scan type : Progressive
Bits/(Pixel*Frame) : 0.212
Stream size : 932 MiB (78%)
Writing library : XviD 1.2.1 (UTC 2008-12-04)
................................................
Audio
ID : 2
Format : AC-3
Format/Info : Audio Coding 3
Codec ID : A_AC3
Duration : 1h 25mn
Bit rate mode : Constant
Bit rate : 384 Kbps
Channel(s) : 6 channels
Channel positions : Front: L C R, Surround: L R, LFE
Sampling rate : 48.0 KHz
Stream size : 235 MiB (20%)
................................................
Plot:
Janet Gregory (Ormond), a single mother with a haunting past, is a paralegal struggling to overcome doubts about Calvin Willis
...................................................
 
http://thepiratebay.org/user/hiest

.......................................................